<svg xmlns="http://www.w3.org/2000/svg" viewBox="0 0 48 48">
  <path d="M46.9334 11.8726V11.7712C46.8827 11.6697 46.8827 11.5682 46.832 11.4667V11.416C46.7812 11.3145 46.6797 11.213 46.629 11.1623L46.5783 11.1116C46.5275 11.0608 46.4261 11.0101 46.3753 10.9594L46.3246 10.9086H46.2738L46.2231 10.8579L24.6595 0.152213C24.2536 -0.0507378 23.7463 -0.0507378 23.2896 0.152213L16.0341 3.7546L37.6992 14.8662L37.7499 14.9169C37.8006 14.9169 37.8006 14.9676 37.8514 14.9676C37.9021 15.0184 37.9021 15.0691 37.9528 15.1199V27.0432C37.9528 27.2462 37.8514 27.3984 37.6992 27.4999L33.3357 29.7831C33.082 29.9353 32.7776 29.8338 32.6254 29.5801C32.5746 29.5294 32.5746 29.4279 32.5746 29.3264V17.809L10.6559 6.49443L10.6052 6.4437L1.82755 10.8071L1.77681 10.8579H1.72608L1.67534 10.9086C1.6246 10.9594 1.52312 11.0101 1.47239 11.0608L1.42165 11.1116C1.32017 11.213 1.26944 11.3145 1.16796 11.416V11.4667C1.11722 11.5682 1.06648 11.6697 1.06648 11.7712V11.8726C1.06648 11.9741 1.01575 12.0249 1.01575 12.1263V35.8209C1.01575 36.379 1.32017 36.9371 1.87829 37.1908L23.2389 47.8457C23.5433 47.9979 23.8985 48.0487 24.2536 47.9472L24.3551 47.8965C24.4566 47.8965 24.5073 47.8457 24.6088 47.795L46.1216 37.14C46.629 36.8864 46.9842 36.379 46.9842 35.7701V12.1263C46.9334 12.0249 46.9334 11.9741 46.9334 11.8726Z"/>
</svg>