<svg viewBox="0 0 54 54" xmlns="http://www.w3.org/2000/svg">
<path d="M42.75 15.9443C42.75 7.15256 35.6846 0 27.0001 0C18.3155 0 11.25 7.15256 11.25 15.9443C11.25 24.7361 18.3154 31.8887 27 31.8887C35.6845 31.8887 42.75 24.7361 42.75 15.9443ZM20.89 19.7623H24.0153C24.0153 20.8585 24.8962 21.7502 25.979 21.7502H27.986C29.1038 21.7502 30.0133 20.8296 30.0133 19.6979C30.0133 18.5663 29.1039 17.6456 27.986 17.6456H26.0141C23.173 17.6456 20.8615 15.3056 20.8615 12.4295C20.8615 9.75073 22.8668 7.53813 25.4374 7.24685V4.61408H28.5627V7.25275C31.1126 7.56482 33.0955 9.76761 33.0955 12.4318H29.9702C29.9702 11.2989 29.0598 10.3773 27.9409 10.3773H26.0142C24.8964 10.3773 23.987 11.2979 23.987 12.4295C23.987 13.5611 24.8964 14.4818 26.0142 14.4818H27.9861C30.8272 14.4818 33.1387 16.8218 33.1387 19.6978C33.1387 22.3766 31.1334 24.5892 28.5628 24.8805V27.5133H25.4375V24.8845C22.8851 24.61 20.89 22.4177 20.89 19.7623ZM37.3876 31.8904C34.406 33.8876 30.8351 35.0526 27.0001 35.0526C23.165 35.0526 19.594 33.8877 16.6125 31.8904V38.8154H11.2966V41.1029L27.0001 54L42.7034 41.1029V38.8154H37.3875L37.3876 31.8904Z" />
</svg>
