<svg xmlns="http://www.w3.org/2000/svg" viewBox="0 0 48 48">
  <g clip-path="url(#clip0_41_566)">
    <path d="M43.2322 5.70778L24.4043 0.0593453C24.1407 -0.0197818 23.8597 -0.0197818 23.596 0.0593453L4.76784 5.70778C4.47819 5.79469 4.22427 5.97267 4.04375 6.21529C3.86324 6.45792 3.76575 6.75228 3.76575 7.05469V27.7656C3.76575 30.4594 4.85634 33.2169 7.00706 35.9617C8.64965 38.0579 10.9222 40.1629 13.7615 42.2182C18.5312 45.6708 23.228 47.7888 23.4256 47.8772C23.6063 47.9582 23.8021 48 24.0002 48C24.1982 48 24.394 47.9582 24.5748 47.8772C24.7723 47.7888 29.469 45.6708 34.2387 42.2182C37.0779 40.1629 39.3504 38.0579 40.9931 35.9617C43.1438 33.217 44.2342 30.4595 44.2342 27.7656V7.05469C44.2343 6.75226 44.1368 6.45789 43.9563 6.21525C43.7758 5.97262 43.5218 5.79465 43.2322 5.70778Z" />
  </g>
  <defs>
    <clipPath id="clip0_41_566">
      <rect width="48" height="48" fill="white"/>
    </clipPath>
  </defs>
</svg>