<svg xmlns="http://www.w3.org/2000/svg" viewBox="0 0 48 48">
  <g clip-path="url(#clip0_41_574)">
    <path d="M44.7269 39.2728H37.0906C32.2785 39.2728 28.3635 35.3578 28.3635 30.5457C28.3635 25.7336 32.2785 21.8186 37.0906 21.8186H44.7269C44.8702 21.8187 45.0121 21.7905 45.1445 21.7358C45.2769 21.681 45.3972 21.6006 45.4985 21.4993C45.5998 21.398 45.6801 21.2777 45.7349 21.1453C45.7897 21.0129 45.8179 20.871 45.8178 20.7277V17.455C45.8178 15.1674 44.0434 13.307 41.8015 13.1266L35.5364 2.18358C34.9558 1.17151 34.0183 0.448145 32.8965 0.147775C31.78 -0.15055 30.6124 0.00612962 29.6131 0.587745L8.13591 13.0914H4.36384C1.9573 13.0914 0.000244141 15.0484 0.000244141 17.455V43.6364C0.000244141 46.0429 1.9572 48 4.36384 48H41.4542C43.8607 48 45.8178 46.043 45.8178 43.6364V40.3637C45.8179 40.2204 45.7897 40.0785 45.7349 39.9461C45.6801 39.8137 45.5998 39.6934 45.4985 39.5921C45.3972 39.4908 45.2769 39.4104 45.1445 39.3556C45.0121 39.3009 44.8702 39.2727 44.7269 39.2728ZM36.8893 8.93961L39.2663 13.0914H29.7581L36.8893 8.93961ZM12.4722 13.0914L30.7114 2.47332C31.2047 2.18461 31.781 2.1079 32.3318 2.25497C32.889 2.40408 33.3535 2.76418 33.6422 3.26806L33.6445 3.27205L16.7789 13.0914H12.4722Z" />
    <path d="M44.7269 24.0002H37.0906C33.4813 24.0002 30.5453 26.9362 30.5453 30.5456C30.5453 34.1549 33.4813 37.0909 37.0906 37.0909H44.7269C46.5316 37.0909 47.9996 35.6229 47.9996 33.8183V27.2729C47.9996 25.4682 46.5316 24.0002 44.7269 24.0002ZM37.0906 32.7273C35.8879 32.7273 34.9089 31.7483 34.9089 30.5456C34.9089 29.3429 35.8879 28.3638 37.0906 28.3638C38.2933 28.3638 39.2724 29.3429 39.2724 30.5456C39.2725 31.7483 38.2934 32.7273 37.0906 32.7273Z" />
  </g>
  <defs>
    <clipPath id="clip0_41_574">
      <rect width="48" height="48" />
    </clipPath>
  </defs>
</svg>