<svg xmlns="http://www.w3.org/2000/svg" viewBox="0 0 36 36">
  <path fill-rule="evenodd" clip-rule="evenodd" d="M18.0132 1.5C27.1257 1.5002 34.5132 8.88742 34.5132 18C34.5132 27.1126 27.1257 34.4998 18.0132 34.5C8.90049 34.5 1.51318 27.1127 1.51318 18C1.51318 8.8873 8.90049 1.5 18.0132 1.5ZM13.1133 15.4204C12.5241 14.94 11.6556 14.9739 11.1064 15.5229C10.5574 16.0721 10.5235 16.9407 11.0039 17.5298L11.1064 17.644L15.2417 21.7808C15.5212 22.0602 15.7941 22.3342 16.043 22.5454C16.2396 22.7123 16.4761 22.8886 16.7651 23.0259L17.0728 23.1489C17.6752 23.3446 18.3248 23.3446 18.9272 23.1489L19.2349 23.0259C19.5238 22.8886 19.7605 22.7123 19.957 22.5454C20.2056 22.3343 20.4777 22.0599 20.7568 21.7808L24.8936 17.644L24.9961 17.5298C25.4764 16.9407 25.4426 16.0721 24.8936 15.5229C24.3442 14.9736 23.4744 14.9394 22.8853 15.4204L22.7725 15.5229L18.6357 19.6582C18.3213 19.9726 18.1484 20.1452 18.0146 20.2588C18.0097 20.263 18.0045 20.2667 18 20.2705C17.9955 20.2667 17.9904 20.263 17.9854 20.2588C17.8516 20.1452 17.6773 19.9727 17.3628 19.6582L13.2275 15.5229L13.1133 15.4204Z"/>
</svg>