<svg xmlns="http://www.w3.org/2000/svg" viewBox="0 0 36 26" fill="none">
  <path d="M33.75 10.75H2.25C1.00737 10.75 0 11.7574 0 13C0 14.2426 1.00737 15.25 2.25 15.25H33.75C34.9926 15.25 36 14.2426 36 13C36 11.7574 34.9926 10.75 33.75 10.75Z" fill="black"/>
  <path d="M2.25 4.75005H33.75C34.9926 4.75005 36 3.74268 36 2.50004C36 1.2574 34.9926 0.250034 33.75 0.250034H2.25C1.00737 0.250034 0 1.2574 0 2.50004C0 3.74268 1.00737 4.75005 2.25 4.75005Z" fill="black"/>
  <path d="M33.75 21.25H2.25C1.00737 21.25 0 22.2574 0 23.5C0 24.7426 1.00737 25.75 2.25 25.75H33.75C34.9926 25.75 36 24.7426 36 23.5C36 22.2574 34.9926 21.25 33.75 21.25Z" fill="black"/>
</svg>