<svg viewBox="0 0 214 50" fill="none" xmlns="http://www.w3.org/2000/svg">
<g clip-path="url(#clip0_3002_878)">
<path d="M19.274 17.6189H12.0569L6.22842 23.8086V9.92556H0V36.3022H6.22842V30.8804L7.97623 29.1017L12.5124 36.3022H19.8813L12.4939 25.1658L19.274 17.6189Z" fill="#141234"/>
<path d="M57.574 26.7123C56.4224 25.8015 54.4672 25.0801 51.7048 24.5407C50.3384 24.2586 49.4274 24.0086 48.972 23.7907C48.5165 23.5693 48.2869 23.2371 48.2869 22.7835C48.2869 22.3299 48.5498 21.9977 49.0757 21.7477C49.6015 21.4977 50.2865 21.3727 51.1345 21.3727C51.8196 21.3727 52.5194 21.4513 53.2415 21.612C53.9636 21.7691 54.6635 21.9977 55.3411 22.2906C56.0187 22.5835 56.6149 22.9264 57.1371 23.3157L59.0182 19.1761C58.0184 18.4547 56.8186 17.8939 55.4189 17.4903C54.0191 17.0867 52.5342 16.8867 50.9642 16.8867C49.3941 16.8867 47.9351 17.1403 46.702 17.6475C45.4689 18.1546 44.5025 18.8654 43.8063 19.7797C43.1101 20.6941 42.7621 21.7656 42.7621 22.9871C42.7621 24.7086 43.3657 26.0587 44.5765 27.0338C45.7837 28.0124 47.6944 28.7124 50.3013 29.141C51.6826 29.3839 52.6083 29.6125 53.0823 29.8196C53.5563 30.0268 53.7933 30.3518 53.7933 30.7911C53.7933 31.2912 53.534 31.6733 53.0156 31.9376C52.4972 32.2019 51.7418 32.3305 50.7568 32.3305C49.6792 32.3305 48.5424 32.1448 47.339 31.7733C46.1355 31.4019 45.0098 30.8911 43.9581 30.2447L42.0215 34.3663C43.099 35.1485 44.3803 35.7521 45.8652 36.1807C47.3538 36.6093 48.9942 36.8201 50.7938 36.8201C52.4898 36.8201 53.9747 36.5593 55.2485 36.0415C56.5224 35.5236 57.5148 34.7949 58.2294 33.852C58.9441 32.9127 59.3033 31.8055 59.3033 30.5375C59.3033 28.9017 58.7256 27.6302 57.574 26.7194V26.7123Z" fill="#141234"/>
<path d="M91.3008 18.1046C90.2232 17.4153 88.7494 17.0689 86.8757 17.0689C85.4316 17.0689 84.0726 17.3403 82.7913 17.8832C81.5138 18.4261 80.4918 19.2904 79.7327 20.4762C79.3513 19.4369 78.6477 18.6118 77.6146 17.9939C76.5814 17.376 75.3594 17.0689 73.9412 17.0689C73.208 17.0689 72.4785 17.176 71.7564 17.3903C71.0343 17.6046 70.3567 17.9225 69.7235 18.3439C69.0903 18.7654 68.5385 19.294 68.072 19.9297V17.6225H61.8435V36.3057H68.072V25.6444C68.072 25.0586 68.2201 24.53 68.52 24.0586C68.8163 23.5871 69.231 23.2121 69.7642 22.9335C70.2975 22.6513 70.9084 22.512 71.6046 22.512C72.6822 22.512 73.5079 22.8299 74.0819 23.4657C74.6596 24.1014 74.9447 24.9372 74.9447 25.9765V36.3057H81.1731V25.6444C81.1731 25.0586 81.3212 24.53 81.6212 24.0586C81.9174 23.5871 82.3322 23.2121 82.8654 22.9335C83.3986 22.6513 84.0059 22.512 84.6872 22.512C85.7759 22.512 86.6054 22.8299 87.1757 23.4657C87.7459 24.1014 88.0311 24.9372 88.0311 25.9765V36.3057H94.2595V24.255C94.2595 23.0335 94.0336 21.8763 93.5855 20.7834C93.1375 19.6904 92.3747 18.7975 91.2971 18.1082L91.3008 18.1046Z" fill="#141234"/>
<path d="M116.385 22.0156C115.474 20.5119 114.207 19.3154 112.586 18.4154C110.964 17.5153 109.097 17.0689 106.983 17.0689C105.402 17.0689 103.95 17.3332 102.636 17.8653C101.317 18.3975 100.181 19.1226 99.2178 20.044C98.255 20.9655 97.5107 22.0227 96.9849 23.2121C96.459 24.4014 96.1961 25.6515 96.1961 26.9587C96.1961 28.7553 96.6553 30.4018 97.5736 31.9055C98.492 33.4091 99.7621 34.6056 101.38 35.5057C103.002 36.4022 104.869 36.8522 106.983 36.8522C108.564 36.8522 110.016 36.5843 111.33 36.045C112.645 35.5093 113.785 34.7807 114.748 33.8663C115.711 32.952 116.451 31.8983 116.97 30.7054C117.488 29.516 117.748 28.266 117.748 26.9587C117.748 25.1622 117.292 23.5157 116.381 22.012L116.385 22.0156ZM113.352 26.8623L113.189 26.9159C110.408 27.8588 108.19 29.9232 107.12 32.5734C107.09 32.6484 106.983 32.6484 106.953 32.5734C105.883 29.9232 103.665 27.8588 100.884 26.9159L100.721 26.8623C100.64 26.8337 100.64 26.7266 100.721 26.698L100.884 26.6444C103.665 25.7015 105.883 23.6371 106.953 20.987C106.983 20.9119 107.09 20.9119 107.12 20.987C108.19 23.6371 110.408 25.7015 113.189 26.6444L113.352 26.698C113.434 26.7266 113.434 26.8337 113.352 26.8623Z" fill="#141234"/>
<path d="M36.2337 18.4154C34.6118 17.5189 32.7455 17.0689 30.6311 17.0689C29.0499 17.0689 27.5983 17.3332 26.2838 17.8653C24.9655 18.3975 23.8287 19.1226 22.8659 20.044C21.9032 20.9655 21.1589 22.0227 20.633 23.2121C20.1072 24.4014 19.8443 25.6515 19.8443 26.9587C19.8443 28.7553 20.3035 30.4018 21.2218 31.9055C22.1401 33.4091 23.4103 34.6056 25.0285 35.5057C26.6504 36.4022 28.5167 36.8522 30.6311 36.8522C32.2123 36.8522 33.6638 36.5843 34.9784 36.045C36.2967 35.5093 37.4335 34.7807 38.3962 33.8663C39.359 32.952 40.0996 31.8983 40.618 30.7054C41.1365 29.516 41.3957 28.266 41.3957 26.9587C41.3957 25.1622 40.9402 23.5157 40.0293 22.012C39.1183 20.5084 37.8519 19.3119 36.23 18.4118L36.2337 18.4154ZM35.2783 22.5335L35.2043 22.6835C33.9267 25.2479 33.8749 28.2195 35.0599 30.8233C35.0932 30.8947 35.0154 30.9697 34.9414 30.9376C32.2419 29.7946 29.161 29.8446 26.5023 31.0769L26.3467 31.1483C26.269 31.184 26.1912 31.1054 26.2282 31.034L26.3023 30.884C27.5798 28.3195 27.6317 25.3479 26.4467 22.7442C26.4134 22.6728 26.4911 22.5978 26.5652 22.6299C29.2647 23.7728 32.3456 23.7228 35.0043 22.4906L35.1598 22.4192C35.2376 22.3835 35.3154 22.462 35.2783 22.5335Z" fill="#141234"/>
</g>
<path d="M213.486 35.8412C213.393 35.7448 213.297 35.6484 213.202 35.552L203.065 25.6422C203.018 25.5974 203.018 25.5217 203.065 25.4769L213.202 15.5671C213.482 15.2951 213.745 15.0093 214 14.7166C208.007 7.25157 195.674 1.65967 180.736 0L171.468 8.92845C171.422 8.97321 171.344 8.97321 171.298 8.92845L162.041 0.0103299C145.602 1.85938 132.328 8.47049 127.222 17.0959L135.795 25.4735C135.841 25.5182 135.841 25.594 135.795 25.6387L127.68 33.5721C133.159 41.9427 146.397 48.2818 162.644 49.9897L171.301 41.65C171.347 41.6053 171.426 41.6053 171.472 41.65L180.14 50C194.932 48.4643 207.241 43.0893 213.493 35.8377L213.486 35.8412Z" fill="url(#paint0_radial_3002_878)"/>
<path d="M151.891 35.8307V18.3606H155.426V19.7797C155.902 19.2389 156.508 18.8049 157.246 18.4811C157.983 18.1574 158.838 17.9955 159.813 17.9955C161.03 17.9955 162.115 18.2676 163.069 18.8084C164.023 19.3491 164.775 20.1138 165.324 21.1023C165.874 22.0909 166.147 23.2379 166.147 24.5468C166.147 25.4699 165.991 26.3275 165.679 27.1232C165.367 27.9189 164.924 28.6146 164.349 29.2105C163.775 29.8064 163.097 30.268 162.321 30.5986C161.54 30.9293 160.682 31.0946 159.742 31.0946C158.994 31.0946 158.303 30.9809 157.675 30.7502C157.047 30.5194 156.483 30.1853 155.983 29.7478V35.8273H151.898L151.891 35.8307ZM159.051 27.6777C159.643 27.6777 160.172 27.5503 160.636 27.2954C161.101 27.0405 161.47 26.6789 161.736 26.2104C162.001 25.742 162.136 25.1874 162.136 24.5468C162.136 23.9061 162.001 23.355 161.732 22.8831C161.462 22.4147 161.094 22.053 160.625 21.7981C160.157 21.5432 159.636 21.4158 159.051 21.4158C158.466 21.4158 157.944 21.5432 157.476 21.7981C157.012 22.053 156.643 22.4147 156.377 22.8831C156.111 23.3515 155.976 23.9061 155.976 24.5468C155.976 25.1874 156.107 25.7385 156.377 26.2104C156.643 26.6789 157.008 27.0405 157.469 27.2954C157.93 27.5503 158.459 27.6777 159.051 27.6777Z" fill="white"/>
<path d="M172.24 28.2254C172.733 28.2254 173.176 28.1393 173.57 27.9705C173.967 27.8018 174.279 27.5503 174.513 27.2231C174.747 26.8959 174.864 26.4929 174.864 26.0176V23.2035C174.864 22.7522 174.772 22.3527 174.584 22.0151C174.396 21.6741 174.098 21.4124 173.683 21.2195C173.272 21.03 172.722 20.9336 172.041 20.9336C171.36 20.9336 170.719 21.03 170.073 21.2264C169.428 21.4192 168.846 21.7051 168.332 22.0771L167.282 19.3491C168.105 18.8463 168.988 18.4777 169.931 18.24C170.871 18.0024 171.797 17.8818 172.705 17.8818C173.903 17.8818 174.96 18.0678 175.872 18.4398C176.783 18.8118 177.496 19.387 178.014 20.162C178.531 20.937 178.787 21.9325 178.787 23.1449V30.7399H175.24V29.431C174.832 29.9649 174.269 30.3782 173.552 30.6675C172.836 30.9603 172.02 31.105 171.105 31.105C170.265 31.105 169.506 30.9465 168.832 30.6262C168.158 30.3059 167.623 29.8512 167.225 29.2553C166.832 28.6594 166.633 27.9464 166.633 27.1129C166.633 26.3999 166.818 25.7696 167.183 25.2219C167.548 24.6708 168.098 24.2196 168.832 23.8648C169.566 23.51 170.488 23.2689 171.598 23.1415C172.712 23.0175 174.01 23.0175 175.503 23.1483L175.542 25.6249C174.751 25.4871 174.038 25.4182 173.4 25.4113C172.761 25.4079 172.222 25.4596 171.775 25.5698C171.329 25.68 170.988 25.8453 170.743 26.0727C170.502 26.3 170.382 26.579 170.382 26.9097C170.382 27.3368 170.552 27.6674 170.889 27.8913" fill="white"/>
<path d="M182.918 36.1579C182.337 36.1579 181.766 36.1028 181.205 35.9892C180.649 35.8755 180.131 35.6929 179.656 35.4449L180.528 32.1211C180.801 32.2589 181.102 32.3691 181.429 32.4483C181.755 32.5275 182.056 32.5689 182.34 32.5689C182.798 32.5689 183.188 32.4759 183.507 32.2899C183.826 32.1039 184.057 31.7973 184.199 31.3667L184.386 30.7846L179.439 18.3606H183.886L186.709 26.8408L189.444 18.3606H193.777L188.493 31.9592C188.061 33.0097 187.557 33.8398 186.99 34.453C186.419 35.0626 185.787 35.5001 185.096 35.7618C184.404 36.0236 183.677 36.1545 182.911 36.1545L182.918 36.1579Z" fill="white"/>
<defs>
<radialGradient id="paint0_radial_3002_878" cx="0" cy="0" r="1" gradientUnits="userSpaceOnUse" gradientTransform="translate(136.694 24.938) scale(91.0652 88.2754)">
<stop offset="0.0145084" stop-color="#BEA8FF"/>
<stop offset="0.509615" stop-color="#5A44E2"/>
<stop offset="1" stop-color="#9483FF"/>
</radialGradient>
<clipPath id="clip0_3002_878">
<rect width="117.751" height="26.9231" fill="white" transform="translate(0 9.92556)"/>
</clipPath>
</defs>
</svg>
