<svg viewBox="0 0 214 50" fill="none" xmlns="http://www.w3.org/2000/svg">
<g clip-path="url(#clip0_2005_784)">
<path d="M19.274 17.6189H12.0569L6.22842 23.8086V9.92556H0V36.3022H6.22842V30.8804L7.97623 29.1017L12.5124 36.3022H19.8813L12.4939 25.1658L19.274 17.6189Z" fill="#141234"/>
<path d="M57.574 26.7123C56.4224 25.8015 54.4672 25.0801 51.7048 24.5407C50.3384 24.2586 49.4274 24.0086 48.972 23.7907C48.5165 23.5693 48.2869 23.2371 48.2869 22.7835C48.2869 22.3299 48.5498 21.9977 49.0757 21.7477C49.6015 21.4977 50.2865 21.3727 51.1345 21.3727C51.8196 21.3727 52.5194 21.4513 53.2415 21.612C53.9636 21.7691 54.6635 21.9977 55.3411 22.2906C56.0187 22.5835 56.6149 22.9264 57.1371 23.3157L59.0182 19.1761C58.0184 18.4547 56.8186 17.8939 55.4189 17.4903C54.0191 17.0867 52.5342 16.8867 50.9642 16.8867C49.3941 16.8867 47.9351 17.1403 46.702 17.6475C45.4689 18.1546 44.5025 18.8654 43.8063 19.7797C43.1101 20.6941 42.7621 21.7656 42.7621 22.9871C42.7621 24.7086 43.3657 26.0587 44.5765 27.0338C45.7837 28.0124 47.6944 28.7124 50.3013 29.141C51.6826 29.3839 52.6083 29.6125 53.0823 29.8196C53.5563 30.0268 53.7933 30.3518 53.7933 30.7911C53.7933 31.2912 53.534 31.6733 53.0156 31.9376C52.4972 32.2019 51.7418 32.3305 50.7568 32.3305C49.6792 32.3305 48.5424 32.1448 47.339 31.7733C46.1355 31.4019 45.0098 30.8911 43.9581 30.2447L42.0215 34.3663C43.099 35.1485 44.3803 35.7521 45.8652 36.1807C47.3538 36.6093 48.9942 36.8201 50.7938 36.8201C52.4898 36.8201 53.9747 36.5593 55.2485 36.0415C56.5224 35.5236 57.5148 34.7949 58.2294 33.852C58.9441 32.9127 59.3033 31.8055 59.3033 30.5375C59.3033 28.9017 58.7256 27.6302 57.574 26.7194V26.7123Z" fill="#141234"/>
<path d="M91.3008 18.1046C90.2232 17.4153 88.7494 17.0689 86.8757 17.0689C85.4316 17.0689 84.0726 17.3403 82.7913 17.8832C81.5138 18.4261 80.4918 19.2904 79.7327 20.4762C79.3513 19.4369 78.6477 18.6118 77.6146 17.9939C76.5814 17.376 75.3594 17.0689 73.9412 17.0689C73.208 17.0689 72.4785 17.176 71.7564 17.3903C71.0343 17.6046 70.3567 17.9225 69.7235 18.3439C69.0903 18.7654 68.5385 19.294 68.072 19.9297V17.6225H61.8435V36.3057H68.072V25.6444C68.072 25.0586 68.2201 24.53 68.52 24.0586C68.8163 23.5871 69.231 23.2121 69.7642 22.9335C70.2975 22.6513 70.9084 22.512 71.6046 22.512C72.6822 22.512 73.5079 22.8299 74.0819 23.4657C74.6596 24.1014 74.9447 24.9372 74.9447 25.9765V36.3057H81.1731V25.6444C81.1731 25.0586 81.3212 24.53 81.6212 24.0586C81.9174 23.5871 82.3322 23.2121 82.8654 22.9335C83.3986 22.6513 84.0059 22.512 84.6872 22.512C85.7759 22.512 86.6054 22.8299 87.1757 23.4657C87.7459 24.1014 88.0311 24.9372 88.0311 25.9765V36.3057H94.2595V24.255C94.2595 23.0335 94.0336 21.8763 93.5855 20.7834C93.1375 19.6904 92.3747 18.7975 91.2971 18.1082L91.3008 18.1046Z" fill="#141234"/>
<path d="M116.385 22.0156C115.474 20.5119 114.207 19.3154 112.586 18.4154C110.964 17.5153 109.097 17.0689 106.983 17.0689C105.402 17.0689 103.95 17.3332 102.636 17.8653C101.317 18.3975 100.181 19.1226 99.2178 20.044C98.255 20.9655 97.5107 22.0227 96.9849 23.2121C96.459 24.4014 96.1961 25.6515 96.1961 26.9587C96.1961 28.7553 96.6553 30.4018 97.5736 31.9055C98.492 33.4091 99.7621 34.6056 101.38 35.5057C103.002 36.4022 104.869 36.8522 106.983 36.8522C108.564 36.8522 110.016 36.5843 111.33 36.045C112.645 35.5093 113.785 34.7807 114.748 33.8663C115.711 32.952 116.451 31.8983 116.97 30.7054C117.488 29.516 117.748 28.266 117.748 26.9587C117.748 25.1622 117.292 23.5157 116.381 22.012L116.385 22.0156ZM113.352 26.8623L113.189 26.9159C110.408 27.8588 108.19 29.9232 107.12 32.5734C107.09 32.6484 106.983 32.6484 106.953 32.5734C105.883 29.9232 103.665 27.8588 100.884 26.9159L100.721 26.8623C100.64 26.8337 100.64 26.7266 100.721 26.698L100.884 26.6444C103.665 25.7015 105.883 23.6371 106.953 20.987C106.983 20.9119 107.09 20.9119 107.12 20.987C108.19 23.6371 110.408 25.7015 113.189 26.6444L113.352 26.698C113.434 26.7266 113.434 26.8337 113.352 26.8623Z" fill="#141234"/>
<path d="M36.2337 18.4154C34.6118 17.5189 32.7455 17.0689 30.6311 17.0689C29.0499 17.0689 27.5983 17.3332 26.2838 17.8653C24.9655 18.3975 23.8287 19.1226 22.8659 20.044C21.9032 20.9655 21.1589 22.0227 20.633 23.2121C20.1072 24.4014 19.8443 25.6515 19.8443 26.9587C19.8443 28.7553 20.3035 30.4018 21.2218 31.9055C22.1401 33.4091 23.4103 34.6056 25.0285 35.5057C26.6504 36.4022 28.5167 36.8522 30.6311 36.8522C32.2123 36.8522 33.6638 36.5843 34.9784 36.045C36.2967 35.5093 37.4335 34.7807 38.3962 33.8663C39.359 32.952 40.0996 31.8983 40.618 30.7054C41.1365 29.516 41.3957 28.266 41.3957 26.9587C41.3957 25.1622 40.9402 23.5157 40.0293 22.012C39.1183 20.5084 37.8519 19.3119 36.23 18.4118L36.2337 18.4154ZM35.2783 22.5335L35.2043 22.6835C33.9267 25.2479 33.8749 28.2195 35.0599 30.8233C35.0932 30.8947 35.0154 30.9697 34.9414 30.9376C32.2419 29.7946 29.161 29.8446 26.5023 31.0769L26.3467 31.1483C26.269 31.184 26.1912 31.1054 26.2282 31.034L26.3023 30.884C27.5798 28.3195 27.6317 25.3479 26.4467 22.7442C26.4134 22.6728 26.4911 22.5978 26.5652 22.6299C29.2647 23.7728 32.3456 23.7228 35.0043 22.4906L35.1598 22.4192C35.2376 22.3835 35.3154 22.462 35.2783 22.5335Z" fill="#141234"/>
</g>
<path d="M213.485 35.8412C213.393 35.7448 213.297 35.6484 213.202 35.552L203.064 25.6422C203.018 25.5974 203.018 25.5217 203.064 25.4769L213.202 15.5671C213.482 15.2951 213.744 15.0093 214 14.7166C208.007 7.25157 195.674 1.65967 180.736 0L171.468 8.92845C171.422 8.97321 171.344 8.97321 171.298 8.92845L162.041 0.0103299C145.602 1.85938 132.328 8.47049 127.222 17.0959L135.795 25.4735C135.841 25.5182 135.841 25.594 135.795 25.6387L127.68 33.5721C133.158 41.9427 146.397 48.2818 162.644 49.9897L171.301 41.65C171.347 41.6053 171.425 41.6053 171.472 41.65L180.14 50C194.932 48.4643 207.241 43.0893 213.493 35.8377L213.485 35.8412Z" fill="#7B7B7B"/>
<path d="M213.485 35.8412C213.393 35.7448 213.297 35.6484 213.202 35.552L203.064 25.6422C203.018 25.5974 203.018 25.5217 203.064 25.4769L213.202 15.5671C213.482 15.2951 213.744 15.0093 214 14.7166C208.007 7.25157 195.674 1.65967 180.736 0L171.468 8.92845C171.422 8.97321 171.344 8.97321 171.298 8.92845L162.041 0.0103299C145.602 1.85938 132.328 8.47049 127.222 17.0959L135.795 25.4735C135.841 25.5182 135.841 25.594 135.795 25.6387L127.68 33.5721C133.158 41.9427 146.397 48.2818 162.644 49.9897L171.301 41.65C171.347 41.6053 171.425 41.6053 171.472 41.65L180.14 50C194.932 48.4643 207.241 43.0893 213.493 35.8377L213.485 35.8412Z" fill="url(#paint0_radial_2005_784)"/>
<path d="M162.741 35.3659V18.4843H166.174V19.8556C166.635 19.3331 167.224 18.9137 167.94 18.6008C168.656 18.288 169.486 18.1315 170.432 18.1315C171.613 18.1315 172.667 18.3945 173.593 18.917C174.519 19.4396 175.249 20.1785 175.782 21.1337C176.316 22.089 176.581 23.1973 176.581 24.4621C176.581 25.3541 176.43 26.1829 176.127 26.9517C175.824 27.7206 175.393 28.3929 174.836 28.9687C174.278 29.5445 173.62 29.9905 172.866 30.3101C172.109 30.6296 171.276 30.7893 170.364 30.7893C169.637 30.7893 168.966 30.6795 168.356 30.4565C167.747 30.2335 167.2 29.9106 166.714 29.4879V35.3625H162.748L162.741 35.3659ZM169.692 27.4876C170.267 27.4876 170.78 27.3644 171.231 27.1181C171.682 26.8718 172.04 26.5224 172.298 26.0697C172.557 25.617 172.687 25.0812 172.687 24.4621C172.687 23.843 172.557 23.3105 172.295 22.8545C172.033 22.4018 171.675 22.0524 171.221 21.8061C170.766 21.5598 170.26 21.4366 169.692 21.4366C169.124 21.4366 168.618 21.5598 168.164 21.8061C167.713 22.0524 167.355 22.4018 167.096 22.8545C166.838 23.3072 166.707 23.843 166.707 24.4621C166.707 25.0812 166.835 25.6137 167.096 26.0697C167.355 26.5224 167.709 26.8718 168.157 27.1181C168.604 27.3644 169.117 27.4876 169.692 27.4876Z" fill="white"/>
<path d="M154.709 28.0168C155.187 28.0168 155.617 27.9336 156 27.7705C156.385 27.6074 156.688 27.3644 156.915 27.0482C157.143 26.732 157.256 26.3426 157.256 25.8833V23.164C157.256 22.728 157.167 22.3419 156.984 22.0157C156.802 21.6862 156.513 21.4333 156.11 21.2469C155.71 21.0638 155.177 20.9706 154.516 20.9706C153.855 20.9706 153.232 21.0638 152.605 21.2535C151.978 21.4399 151.414 21.7162 150.915 22.0756L149.896 19.4396C150.694 18.9536 151.552 18.5975 152.467 18.3678C153.38 18.1382 154.278 18.0217 155.16 18.0217C156.323 18.0217 157.349 18.2014 158.234 18.5609C159.119 18.9203 159.811 19.4762 160.313 20.2251C160.816 20.9739 161.064 21.9358 161.064 23.1074V30.4465H157.621V29.1817C157.225 29.6976 156.678 30.097 155.982 30.3766C155.287 30.6595 154.495 30.7993 153.607 30.7993C152.791 30.7993 152.054 30.6462 151.4 30.3367C150.746 30.0271 150.226 29.5878 149.841 29.012C149.458 28.4362 149.266 27.7472 149.266 26.9417C149.266 26.2528 149.445 25.6437 149.799 25.1144C150.154 24.5819 150.687 24.1459 151.4 23.8031C152.113 23.4602 153.008 23.2273 154.085 23.1041C155.166 22.9843 156.426 22.9843 157.876 23.1108L157.914 25.5039C157.146 25.3707 156.454 25.3042 155.834 25.2975C155.215 25.2942 154.691 25.3441 154.258 25.4506C153.824 25.5571 153.493 25.7169 153.256 25.9366C153.022 26.1562 152.905 26.4258 152.905 26.7453C152.905 27.1581 153.07 27.4776 153.397 27.6939" fill="white"/>
<path d="M177.978 35.3659V18.4843H181.41V19.8556C181.871 19.3331 182.46 18.9137 183.176 18.6008C183.892 18.288 184.722 18.1315 185.669 18.1315C186.849 18.1315 187.903 18.3945 188.829 18.917C189.755 19.4396 190.485 20.1785 191.019 21.1337C191.552 22.089 191.817 23.1973 191.817 24.4621C191.817 25.3541 191.666 26.1829 191.363 26.9517C191.06 27.7206 190.63 28.3929 190.072 28.9687C189.514 29.5445 188.857 29.9905 188.103 30.3101C187.345 30.6296 186.512 30.7893 185.6 30.7893C184.873 30.7893 184.202 30.6795 183.593 30.4565C182.983 30.2335 182.436 29.9106 181.95 29.4879V35.3625H177.984L177.978 35.3659ZM184.928 27.4876C185.503 27.4876 186.016 27.3644 186.467 27.1181C186.918 26.8718 187.276 26.5224 187.535 26.0697C187.793 25.617 187.924 25.0812 187.924 24.4621C187.924 23.843 187.793 23.3105 187.531 22.8545C187.269 22.4018 186.911 22.0524 186.457 21.8061C186.003 21.5598 185.496 21.4366 184.928 21.4366C184.36 21.4366 183.854 21.5598 183.4 21.8061C182.949 22.0524 182.591 22.4018 182.333 22.8545C182.074 23.3072 181.944 23.843 181.944 24.4621C181.944 25.0812 182.071 25.6137 182.333 26.0697C182.591 26.5224 182.945 26.8718 183.393 27.1181C183.841 27.3644 184.354 27.4876 184.928 27.4876Z" fill="white"/>
<defs>
<radialGradient id="paint0_radial_2005_784" cx="0" cy="0" r="1" gradientUnits="userSpaceOnUse" gradientTransform="translate(136.694 24.938) scale(91.0652 88.2754)">
<stop offset="0.0145084" stop-color="#BEA8FF"/>
<stop offset="0.509615" stop-color="#5A44E2"/>
<stop offset="1" stop-color="#9483FF"/>
</radialGradient>
<clipPath id="clip0_2005_784">
<rect width="117.751" height="26.9231" fill="white" transform="translate(0 9.92556)"/>
</clipPath>
</defs>
</svg>
