<svg viewBox="0 0 1440 345" fill="none" xmlns="http://www.w3.org/2000/svg">
<g clip-path="url(#clip0_2005_702)">
<path d="M129.694 121.57H81.1307L41.9109 164.279V68.4863H0V250.485H41.9109V213.075L53.6718 200.802L84.1955 250.485H133.781L84.0709 173.644L129.694 121.57Z" fill="#DCE1EA"/>
<path d="M387.414 184.315C379.665 178.031 366.508 173.052 347.92 169.331C338.725 167.384 332.596 165.659 329.531 164.156C326.466 162.628 324.921 160.336 324.921 157.206C324.921 154.076 326.69 151.784 330.229 150.059C333.767 148.334 338.377 147.472 344.083 147.472C348.692 147.472 353.402 148.014 358.261 149.123C363.12 150.207 367.829 151.784 372.389 153.805C376.949 155.826 380.96 158.192 384.474 160.878L397.132 132.315C390.404 127.337 382.331 123.468 372.912 120.683C363.493 117.898 353.501 116.518 342.936 116.518C332.372 116.518 322.554 118.268 314.257 121.767C305.959 125.267 299.456 130.171 294.771 136.48C290.087 142.789 287.745 150.182 287.745 158.611C287.745 170.489 291.806 179.805 299.954 186.533C308.077 193.285 320.935 198.116 338.476 201.073C347.77 202.749 354 204.326 357.189 205.755C360.379 207.185 361.973 209.427 361.973 212.459C361.973 215.909 360.229 218.546 356.741 220.37C353.252 222.193 348.169 223.08 341.541 223.08C334.29 223.08 326.641 221.799 318.542 219.236C310.444 216.673 302.87 213.149 295.793 208.688L282.761 237.128C290.012 242.525 298.634 246.69 308.625 249.647C318.642 252.604 329.681 254.058 341.79 254.058C353.202 254.058 363.194 252.259 371.766 248.686C380.337 245.113 387.015 240.085 391.824 233.579C396.633 227.097 399.05 219.458 399.05 210.709C399.05 199.422 395.163 190.648 387.414 184.364V184.315Z" fill="#DCE1EA"/>
<path d="M614.36 124.922C607.109 120.166 597.192 117.775 584.584 117.775C574.867 117.775 565.722 119.648 557.1 123.394C548.504 127.14 541.627 133.104 536.519 141.286C533.952 134.114 529.218 128.421 522.266 124.158C515.314 119.894 507.091 117.775 497.548 117.775C492.615 117.775 487.706 118.514 482.847 119.993C477.988 121.472 473.428 123.665 469.167 126.573C464.907 129.481 461.194 133.128 458.054 137.515V121.595H416.143V250.51H458.054V176.946C458.054 172.904 459.051 169.257 461.069 166.004C463.063 162.751 465.853 160.163 469.441 158.241C473.03 156.294 477.141 155.333 481.825 155.333C489.076 155.333 494.633 157.526 498.495 161.913C502.382 166.3 504.301 172.067 504.301 179.238V250.51H546.212V176.946C546.212 172.904 547.208 169.257 549.227 166.004C551.22 162.751 554.011 160.163 557.599 158.241C561.187 156.294 565.273 155.333 569.858 155.333C577.184 155.333 582.765 157.526 586.603 161.913C590.44 166.3 592.358 172.067 592.358 179.238V250.51H634.269V167.36C634.269 158.931 632.749 150.946 629.734 143.405C626.719 135.864 621.586 129.703 614.336 124.947L614.36 124.922Z" fill="#DCE1EA"/>
<path d="M783.15 151.908C777.02 141.532 768.499 133.276 757.585 127.066C746.671 120.856 734.113 117.775 719.885 117.775C709.245 117.775 699.478 119.599 690.632 123.271C681.762 126.943 674.112 131.946 667.634 138.304C661.155 144.662 656.147 151.957 652.608 160.163C649.07 168.37 647.301 176.995 647.301 186.015C647.301 198.411 650.391 209.772 656.57 220.148C662.75 230.523 671.296 238.779 682.185 244.989C693.099 251.175 705.657 254.28 719.885 254.28C730.525 254.28 740.292 252.432 749.138 248.711C757.984 245.014 765.658 239.986 772.137 233.678C778.615 227.369 783.599 220.098 787.087 211.867C790.575 203.661 792.32 195.035 792.32 186.015C792.32 173.619 789.255 162.258 783.125 151.883L783.15 151.908ZM762.743 185.35L761.646 185.72C742.934 192.226 728.008 206.47 720.807 224.756C720.608 225.274 719.885 225.274 719.686 224.756C712.485 206.47 697.559 192.226 678.846 185.72L677.75 185.35C677.202 185.153 677.202 184.413 677.75 184.216L678.846 183.847C697.559 177.34 712.485 163.096 719.686 144.81C719.885 144.292 720.608 144.292 720.807 144.81C728.008 163.096 742.934 177.34 761.646 183.847L762.743 184.216C763.291 184.413 763.291 185.153 762.743 185.35Z" fill="#DCE1EA"/>
<path d="M243.816 127.066C232.902 120.88 220.343 117.775 206.116 117.775C195.476 117.775 185.708 119.599 176.863 123.271C167.992 126.943 160.343 131.946 153.864 138.304C147.386 144.662 142.377 151.957 138.839 160.163C135.301 168.37 133.532 176.995 133.532 186.015C133.532 198.411 136.621 209.772 142.801 220.148C148.98 230.523 157.527 238.779 168.416 244.989C179.33 251.175 191.888 254.28 206.116 254.28C216.755 254.28 226.523 252.432 235.369 248.711C244.239 245.014 251.889 239.986 258.367 233.678C264.846 227.369 269.829 220.098 273.318 211.867C276.806 203.661 278.55 195.035 278.55 186.015C278.55 173.619 275.485 162.258 269.356 151.883C263.226 141.508 254.704 133.252 243.791 127.041L243.816 127.066ZM237.387 155.481L236.889 156.516C228.292 174.211 227.943 194.715 235.917 212.681C236.141 213.173 235.618 213.691 235.119 213.469C216.955 205.583 196.224 205.928 178.333 214.43L177.286 214.923C176.763 215.17 176.24 214.627 176.489 214.135L176.987 213.099C185.584 195.405 185.933 174.901 177.959 156.935C177.735 156.442 178.258 155.925 178.757 156.146C196.921 164.033 217.652 163.688 235.543 155.185L236.59 154.692C237.113 154.446 237.636 154.988 237.387 155.481Z" fill="#DCE1EA"/>
</g>
<path d="M1436.54 247.304C1435.92 246.639 1435.27 245.974 1434.63 245.309L1366.42 176.931C1366.11 176.622 1366.11 176.099 1366.42 175.791L1434.63 107.413C1436.51 105.536 1438.28 103.564 1440 101.545C1399.67 50.0358 1316.68 11.4517 1216.17 0L1153.8 61.6063C1153.49 61.9152 1152.97 61.9152 1152.66 61.6063L1090.37 0.071276C979.752 12.8297 890.434 58.4464 856.077 117.962L913.76 175.767C914.07 176.076 914.07 176.598 913.76 176.907L859.157 231.647C896.02 289.405 985.1 333.144 1094.43 344.929L1152.68 287.385C1152.99 287.076 1153.52 287.076 1153.83 287.385L1212.16 345C1311.69 334.404 1394.52 297.316 1436.59 247.28L1436.54 247.304Z" fill="#DCE1EA"/>
<path d="M1095.08 244.024V127.542H1118.18V137.004C1121.28 133.398 1125.24 130.505 1130.06 128.346C1134.88 126.187 1140.46 125.108 1146.83 125.108C1154.78 125.108 1161.87 126.922 1168.1 130.528C1174.33 134.133 1179.24 139.232 1182.83 145.823C1186.43 152.414 1188.21 160.062 1188.21 168.789C1188.21 174.943 1187.19 180.662 1185.15 185.967C1183.11 191.272 1180.22 195.911 1176.46 199.884C1172.71 203.857 1168.29 206.935 1163.21 209.139C1158.12 211.344 1152.51 212.446 1146.37 212.446C1141.48 212.446 1136.97 211.689 1132.87 210.15C1128.77 208.611 1125.08 206.383 1121.82 203.467V244.001H1095.13L1095.08 244.024ZM1141.85 189.664C1145.72 189.664 1149.17 188.815 1152.21 187.115C1155.24 185.416 1157.65 183.004 1159.39 179.881C1161.13 176.758 1162.01 173.06 1162.01 168.789C1162.01 164.517 1161.13 160.842 1159.37 157.696C1157.61 154.573 1155.2 152.161 1152.14 150.462C1149.08 148.762 1145.68 147.913 1141.85 147.913C1138.03 147.913 1134.63 148.762 1131.57 150.462C1128.53 152.161 1126.12 154.573 1124.39 157.696C1122.65 160.819 1121.77 164.517 1121.77 168.789C1121.77 173.06 1122.63 176.735 1124.39 179.881C1126.12 183.004 1128.51 185.416 1131.52 187.115C1134.53 188.815 1137.99 189.664 1141.85 189.664Z" fill="white"/>
<path d="M1041.03 193.316C1044.25 193.316 1047.15 192.742 1049.72 191.616C1052.31 190.491 1054.35 188.815 1055.88 186.633C1057.41 184.451 1058.17 181.764 1058.17 178.595V159.832C1058.17 156.823 1057.57 154.159 1056.34 151.909C1055.11 149.635 1053.17 147.89 1050.46 146.603C1047.77 145.34 1044.18 144.697 1039.73 144.697C1035.28 144.697 1031.09 145.34 1026.88 146.649C1022.66 147.935 1018.86 149.842 1015.5 152.322L1008.64 134.133C1014.02 130.78 1019.79 128.323 1025.95 126.738C1032.09 125.153 1038.13 124.35 1044.06 124.35C1051.89 124.35 1058.8 125.59 1064.75 128.07C1070.71 130.55 1075.36 134.386 1078.74 139.553C1082.13 144.72 1083.79 151.357 1083.79 159.441V210.081H1060.63V201.354C1057.96 204.914 1054.28 207.669 1049.6 209.599C1044.92 211.551 1039.59 212.515 1033.62 212.515C1028.13 212.515 1023.17 211.459 1018.77 209.323C1014.37 207.187 1010.87 204.156 1008.27 200.183C1005.7 196.21 1004.4 191.456 1004.4 185.898C1004.4 181.144 1005.61 176.941 1007.99 173.29C1010.38 169.615 1013.97 166.607 1018.77 164.241C1023.56 161.876 1029.59 160.268 1036.84 159.418C1044.11 158.592 1052.59 158.592 1062.34 159.464L1062.6 175.977C1057.43 175.058 1052.77 174.599 1048.6 174.553C1044.43 174.53 1040.91 174.874 1037.99 175.609C1035.08 176.344 1032.85 177.446 1031.25 178.962C1029.68 180.478 1028.89 182.338 1028.89 184.543C1028.89 187.391 1030 189.595 1032.2 191.088" fill="white"/>
<path d="M1197.61 244.024V127.542H1220.7V137.004C1223.81 133.398 1227.77 130.505 1232.59 128.346C1237.41 126.187 1242.99 125.108 1249.36 125.108C1257.31 125.108 1264.39 126.922 1270.63 130.528C1276.86 134.133 1281.77 139.232 1285.36 145.823C1288.95 152.414 1290.73 160.062 1290.73 168.789C1290.73 174.943 1289.71 180.662 1287.68 185.967C1285.64 191.272 1282.74 195.911 1278.99 199.884C1275.24 203.857 1270.81 206.935 1265.74 209.139C1260.64 211.344 1255.03 212.446 1248.9 212.446C1244.01 212.446 1239.49 211.689 1235.39 210.15C1231.29 208.611 1227.61 206.383 1224.34 203.467V244.001H1197.65L1197.61 244.024ZM1244.38 189.664C1248.25 189.664 1251.7 188.815 1254.73 187.115C1257.77 185.416 1260.18 183.004 1261.91 179.881C1263.65 176.758 1264.53 173.06 1264.53 168.789C1264.53 164.517 1263.65 160.842 1261.89 157.696C1260.13 154.573 1257.72 152.161 1254.66 150.462C1251.61 148.762 1248.2 147.913 1244.38 147.913C1240.56 147.913 1237.15 148.762 1234.09 150.462C1231.06 152.161 1228.65 154.573 1226.91 157.696C1225.17 160.819 1224.29 164.517 1224.29 168.789C1224.29 173.06 1225.15 176.735 1226.91 179.881C1228.65 183.004 1231.03 185.416 1234.05 187.115C1237.06 188.815 1240.51 189.664 1244.38 189.664Z" fill="white"/>
<defs>
<clipPath id="clip0_2005_702">
<rect width="792.344" height="185.769" fill="white" transform="translate(0 68.4863)"/>
</clipPath>
</defs>
</svg>
