<svg viewBox="0 0 1440 345" fill="none" xmlns="http://www.w3.org/2000/svg">
<g clip-path="url(#clip0_3002_444)">
<path d="M129.694 121.57H81.1307L41.9109 164.279V68.4863H0V250.485H41.9109V213.075L53.6718 200.802L84.1955 250.485H133.781L84.0709 173.644L129.694 121.57Z" fill="#DCE1EA"/>
<path d="M387.414 184.315C379.665 178.031 366.508 173.052 347.92 169.331C338.725 167.384 332.596 165.659 329.531 164.156C326.466 162.628 324.921 160.336 324.921 157.206C324.921 154.076 326.69 151.784 330.229 150.059C333.767 148.334 338.377 147.472 344.083 147.472C348.692 147.472 353.402 148.014 358.261 149.123C363.12 150.207 367.829 151.784 372.389 153.805C376.949 155.826 380.96 158.192 384.474 160.878L397.132 132.315C390.404 127.337 382.331 123.468 372.912 120.683C363.493 117.898 353.501 116.518 342.936 116.518C332.372 116.518 322.554 118.268 314.257 121.767C305.959 125.267 299.456 130.171 294.771 136.48C290.087 142.789 287.745 150.182 287.745 158.611C287.745 170.489 291.806 179.805 299.954 186.533C308.077 193.285 320.935 198.116 338.476 201.073C347.77 202.749 354 204.326 357.189 205.755C360.379 207.185 361.973 209.427 361.973 212.459C361.973 215.909 360.229 218.546 356.741 220.37C353.252 222.193 348.169 223.08 341.541 223.08C334.29 223.08 326.641 221.799 318.542 219.236C310.444 216.673 302.87 213.149 295.793 208.688L282.761 237.128C290.012 242.525 298.634 246.69 308.625 249.647C318.642 252.604 329.681 254.058 341.79 254.058C353.202 254.058 363.194 252.259 371.766 248.686C380.337 245.113 387.015 240.085 391.824 233.579C396.633 227.097 399.05 219.458 399.05 210.709C399.05 199.422 395.163 190.648 387.414 184.364V184.315Z" fill="#DCE1EA"/>
<path d="M614.36 124.922C607.109 120.166 597.192 117.775 584.584 117.775C574.867 117.775 565.722 119.648 557.1 123.394C548.504 127.14 541.627 133.104 536.519 141.286C533.952 134.114 529.218 128.421 522.266 124.158C515.314 119.894 507.091 117.775 497.548 117.775C492.615 117.775 487.706 118.514 482.847 119.993C477.988 121.472 473.428 123.665 469.167 126.573C464.907 129.481 461.194 133.128 458.054 137.515V121.595H416.143V250.51H458.054V176.946C458.054 172.904 459.051 169.257 461.069 166.004C463.063 162.751 465.853 160.163 469.441 158.241C473.03 156.294 477.141 155.333 481.825 155.333C489.076 155.333 494.633 157.526 498.495 161.913C502.382 166.3 504.301 172.067 504.301 179.238V250.51H546.212V176.946C546.212 172.904 547.208 169.257 549.227 166.004C551.22 162.751 554.011 160.163 557.599 158.241C561.187 156.294 565.273 155.333 569.858 155.333C577.184 155.333 582.765 157.526 586.603 161.913C590.44 166.3 592.358 172.067 592.358 179.238V250.51H634.269V167.36C634.269 158.931 632.749 150.946 629.734 143.405C626.719 135.864 621.586 129.703 614.336 124.947L614.36 124.922Z" fill="#DCE1EA"/>
<path d="M783.15 151.908C777.02 141.532 768.499 133.276 757.585 127.066C746.671 120.856 734.113 117.775 719.885 117.775C709.245 117.775 699.478 119.599 690.632 123.271C681.762 126.943 674.112 131.946 667.634 138.304C661.155 144.662 656.147 151.957 652.608 160.163C649.07 168.37 647.301 176.995 647.301 186.015C647.301 198.411 650.391 209.772 656.57 220.148C662.75 230.523 671.296 238.779 682.185 244.989C693.099 251.175 705.657 254.28 719.885 254.28C730.525 254.28 740.292 252.432 749.138 248.711C757.984 245.014 765.658 239.986 772.137 233.678C778.615 227.369 783.599 220.098 787.087 211.867C790.575 203.661 792.32 195.035 792.32 186.015C792.32 173.619 789.255 162.258 783.125 151.883L783.15 151.908ZM762.743 185.35L761.646 185.72C742.934 192.226 728.008 206.47 720.807 224.756C720.608 225.274 719.885 225.274 719.686 224.756C712.485 206.47 697.559 192.226 678.846 185.72L677.75 185.35C677.202 185.153 677.202 184.413 677.75 184.216L678.846 183.847C697.559 177.34 712.485 163.096 719.686 144.81C719.885 144.292 720.608 144.292 720.807 144.81C728.008 163.096 742.934 177.34 761.646 183.847L762.743 184.216C763.291 184.413 763.291 185.153 762.743 185.35Z" fill="#DCE1EA"/>
<path d="M243.816 127.066C232.902 120.88 220.343 117.775 206.116 117.775C195.476 117.775 185.708 119.599 176.863 123.271C167.992 126.943 160.343 131.946 153.864 138.304C147.386 144.662 142.377 151.957 138.839 160.163C135.301 168.37 133.532 176.995 133.532 186.015C133.532 198.411 136.621 209.772 142.801 220.148C148.98 230.523 157.527 238.779 168.416 244.989C179.33 251.175 191.888 254.28 206.116 254.28C216.755 254.28 226.523 252.432 235.369 248.711C244.239 245.014 251.889 239.986 258.367 233.678C264.846 227.369 269.829 220.098 273.318 211.867C276.806 203.661 278.55 195.035 278.55 186.015C278.55 173.619 275.485 162.258 269.356 151.883C263.226 141.508 254.704 133.252 243.791 127.041L243.816 127.066ZM237.387 155.481L236.889 156.516C228.292 174.211 227.943 194.715 235.917 212.681C236.141 213.173 235.618 213.691 235.119 213.469C216.955 205.583 196.224 205.928 178.333 214.43L177.286 214.923C176.763 215.17 176.24 214.627 176.489 214.135L176.987 213.099C185.584 195.405 185.933 174.901 177.959 156.935C177.735 156.442 178.258 155.925 178.757 156.146C196.921 164.033 217.652 163.688 235.543 155.185L236.59 154.692C237.113 154.446 237.636 154.988 237.387 155.481Z" fill="#DCE1EA"/>
</g>
<path d="M1436.54 247.304C1435.92 246.639 1435.27 245.974 1434.63 245.309L1366.42 176.931C1366.11 176.622 1366.11 176.099 1366.42 175.791L1434.63 107.413C1436.51 105.536 1438.28 103.564 1440 101.545C1399.67 50.0358 1316.68 11.4517 1216.17 0L1153.8 61.6063C1153.49 61.9152 1152.97 61.9152 1152.66 61.6063L1090.37 0.071276C979.752 12.8297 890.433 58.4464 856.077 117.962L913.76 175.767C914.07 176.076 914.07 176.598 913.76 176.907L859.156 231.647C896.02 289.405 985.1 333.144 1094.43 344.929L1152.68 287.385C1152.99 287.076 1153.52 287.076 1153.83 287.385L1212.16 345C1311.69 334.404 1394.52 297.316 1436.59 247.28L1436.54 247.304Z" fill="#DCE1EA"/>
<path d="M1022.07 247.232V126.688H1045.86V136.48C1049.06 132.749 1053.14 129.754 1058.1 127.52C1063.07 125.286 1068.82 124.169 1075.38 124.169C1083.56 124.169 1090.87 126.047 1097.29 129.778C1103.71 133.509 1108.76 138.785 1112.46 145.606C1116.16 152.427 1118 160.342 1118 169.373C1118 175.742 1116.95 181.66 1114.85 187.15C1112.75 192.64 1109.77 197.441 1105.9 201.553C1102.04 205.664 1097.48 208.849 1092.25 211.131C1087 213.412 1081.23 214.553 1074.9 214.553C1069.87 214.553 1065.21 213.769 1060.99 212.176C1056.77 210.584 1052.97 208.279 1049.61 205.26V247.208H1022.12L1022.07 247.232ZM1070.25 190.977C1074.23 190.977 1077.79 190.097 1080.92 188.339C1084.04 186.58 1086.52 184.084 1088.31 180.852C1090.1 177.62 1091.01 173.793 1091.01 169.373C1091.01 164.952 1090.1 161.15 1088.29 157.894C1086.48 154.661 1083.99 152.166 1080.84 150.407C1077.69 148.648 1074.19 147.769 1070.25 147.769C1066.31 147.769 1062.8 148.648 1059.65 150.407C1056.53 152.166 1054.05 154.661 1052.26 157.894C1050.47 161.126 1049.56 164.952 1049.56 169.373C1049.56 173.793 1050.44 177.596 1052.26 180.852C1054.05 184.084 1056.5 186.58 1059.61 188.339C1062.71 190.097 1066.26 190.977 1070.25 190.977Z" fill="white"/>
<path d="M1159 194.756C1162.32 194.756 1165.3 194.161 1167.95 192.997C1170.62 191.832 1172.72 190.097 1174.29 187.84C1175.87 185.582 1176.66 182.801 1176.66 179.521V160.104C1176.66 156.991 1176.04 154.234 1174.77 151.905C1173.51 149.552 1171.5 147.745 1168.71 146.415C1165.94 145.107 1162.24 144.442 1157.66 144.442C1153.08 144.442 1148.76 145.107 1144.42 146.462C1140.07 147.793 1136.16 149.766 1132.7 152.332L1125.64 133.509C1131.17 130.039 1137.12 127.496 1143.46 125.856C1149.79 124.217 1156.02 123.385 1162.12 123.385C1170.19 123.385 1177.3 124.668 1183.43 127.235C1189.57 129.802 1194.36 133.771 1197.85 139.118C1201.33 144.466 1203.05 151.334 1203.05 159.7V212.105H1179.19V203.074C1176.44 206.758 1172.65 209.61 1167.83 211.606C1163.01 213.626 1157.52 214.624 1151.36 214.624C1145.71 214.624 1140.6 213.531 1136.07 211.321C1131.53 209.111 1127.93 205.973 1125.25 201.862C1122.61 197.75 1121.27 192.831 1121.27 187.079C1121.27 182.159 1122.51 177.81 1124.97 174.031C1127.43 170.229 1131.13 167.115 1136.07 164.667C1141 162.219 1147.21 160.556 1154.68 159.676C1162.17 158.821 1170.91 158.821 1180.95 159.724L1181.22 176.812C1175.89 175.861 1171.1 175.386 1166.8 175.338C1162.51 175.315 1158.88 175.671 1155.87 176.432C1152.87 177.192 1150.57 178.333 1148.93 179.902C1147.3 181.47 1146.49 183.395 1146.49 185.677C1146.49 188.624 1147.64 190.905 1149.91 192.45" fill="white"/>
<path d="M1230.85 249.49C1226.94 249.49 1223.1 249.11 1219.33 248.325C1215.58 247.541 1212.09 246.282 1208.9 244.57L1214.77 221.636C1216.61 222.586 1218.63 223.347 1220.83 223.893C1223.02 224.44 1225.05 224.725 1226.96 224.725C1230.04 224.725 1232.67 224.084 1234.81 222.8C1236.96 221.517 1238.51 219.402 1239.47 216.431L1240.73 212.414L1207.44 126.688H1237.37L1256.36 185.202L1274.76 126.688H1303.92L1268.37 220.519C1265.45 227.767 1262.07 233.495 1258.25 237.726C1254.41 241.932 1250.16 244.951 1245.5 246.757C1240.85 248.563 1235.96 249.466 1230.8 249.466L1230.85 249.49Z" fill="white"/>
<defs>
<clipPath id="clip0_3002_444">
<rect width="792.344" height="185.769" fill="white" transform="translate(0 68.4863)"/>
</clipPath>
</defs>
</svg>
