<svg xmlns="http://www.w3.org/2000/svg" viewBox="0 0 49 48" >
  <path d="M34.966 30.656C34.6335 28.397 33.5024 26.332 31.7777 24.8356C30.0531 23.3393 27.8492 22.5106 25.566 22.5H23.438C21.1547 22.5106 18.9508 23.3393 17.2262 24.8356C15.5015 26.332 14.3704 28.397 14.038 30.656L13.018 37.788C12.9854 38.0186 13.0069 38.2535 13.0808 38.4743C13.1548 38.6951 13.2791 38.8956 13.444 39.06C13.844 39.46 16.298 41.5 24.504 41.5C32.71 41.5 35.158 39.468 35.564 39.06C35.7288 38.8956 35.8531 38.6951 35.9271 38.4743C36.001 38.2535 36.0225 38.0186 35.99 37.788L34.966 30.656ZM15.62 23.6C13.687 25.3819 12.4294 27.7771 12.06 30.38L11.32 35.5C5.37995 35.46 3.57995 33.3 3.27995 32.86C3.16399 32.7002 3.08123 32.5187 3.03658 32.3263C2.99192 32.134 2.98627 31.9346 3.01995 31.74L3.45995 29.26C3.68919 27.9639 4.22759 26.7422 5.0295 25.6985C5.8314 24.6547 6.87316 23.8197 8.06645 23.2643C9.25973 22.7089 10.5694 22.4494 11.8843 22.5078C13.1992 22.5663 14.4806 22.9409 15.62 23.6ZM45.98 31.74C46.0136 31.9346 46.008 32.134 45.9633 32.3263C45.9187 32.5187 45.8359 32.7002 45.72 32.86C45.42 33.3 43.62 35.46 37.68 35.5L36.94 30.38C36.5706 27.7771 35.3129 25.3819 33.38 23.6C34.5193 22.9409 35.8007 22.5663 37.1156 22.5078C38.4306 22.4494 39.7402 22.7089 40.9335 23.2643C42.1268 23.8197 43.1685 24.6547 43.9704 25.6985C44.7723 26.7422 45.3107 27.9639 45.54 29.26L45.98 31.74ZM15.96 19.2C15.4565 19.914 14.7882 20.4959 14.0117 20.8963C13.2352 21.2968 12.3736 21.5039 11.5 21.5C10.6285 21.5 9.76946 21.2929 8.99371 20.8958C8.21796 20.4987 7.54769 19.9229 7.03812 19.2159C6.52855 18.5089 6.19428 17.691 6.06285 16.8295C5.93143 15.9679 6.0066 15.0875 6.28219 14.2608C6.55778 13.434 7.02589 12.6845 7.64794 12.0742C8.27 11.4638 9.02819 11.01 9.86003 10.7502C10.6919 10.4903 11.5736 10.4319 12.4324 10.5796C13.2913 10.7274 14.1028 11.0771 14.8 11.6C14.5994 12.3842 14.4986 13.1906 14.5 14C14.5015 15.8343 15.0065 17.633 15.96 19.2ZM43 16C43.0005 16.7224 42.8586 17.4379 42.5824 18.1054C42.3062 18.7729 41.9011 19.3794 41.3902 19.8903C40.8794 20.4011 40.2729 20.8062 39.6053 21.0824C38.9378 21.3586 38.2224 21.5005 37.5 21.5C36.6263 21.5039 35.7647 21.2968 34.9882 20.8963C34.2117 20.4959 33.5434 19.914 33.04 19.2C33.9934 17.633 34.4984 15.8343 34.5 14C34.5013 13.1906 34.4005 12.3842 34.2 11.6C35.0171 10.9872 35.9887 10.614 37.006 10.5222C38.0233 10.4305 39.0461 10.6239 39.9596 11.0807C40.8732 11.5374 41.6416 12.2396 42.1785 13.1085C42.7155 13.9774 43 14.9786 43 16Z" />
  <path d="M24.5 21.5C28.6421 21.5 32 18.1421 32 14C32 9.85786 28.6421 6.5 24.5 6.5C20.3579 6.5 17 9.85786 17 14C17 18.1421 20.3579 21.5 24.5 21.5Z" />
</svg>