<svg xmlns="http://www.w3.org/2000/svg" viewBox="0 0 24 24">
  <path d="M12.0081 0C13.1106 4.81927e-08 14.0046 0.894095 14.0046 1.99662V9.99607H22.0035L22.2082 10.0074C23.2142 10.1102 24 10.9595 24 11.9927C23.9996 13.0256 23.214 13.8753 22.2082 13.9779L22.0035 13.9893H14.0046V22.0034L13.9932 22.2081C13.8909 23.2146 13.0416 24 12.0081 24C10.9747 24 10.1254 23.2146 10.023 22.2081L10.0116 22.0034V13.9893H1.9981C0.895929 13.9893 0.000438822 13.0948 0 11.9927C0 10.8902 0.895659 9.99607 1.9981 9.99607H10.0116V1.99662C10.0116 0.894095 10.9057 -1.00834e-09 12.0081 0Z" />
</svg>