<svg width="128" height="128" viewBox="0 0 128 128" fill="none" xmlns="http://www.w3.org/2000/svg">
<path d="M20 32.3828L33.5628 56.6252V71.4128L20.0159 95.6076L20 32.3828Z" fill="#5B57A2"/>
<path d="M72.0781 47.806L84.7869 40.0164L110.797 39.9922L72.0781 63.7112V47.806Z" fill="#D90751"/>
<path d="M71.9994 32.2351L72.0714 64.3316L58.4766 55.9784V8L71.9994 32.2351Z" fill="#FAB718"/>
<path d="M110.789 39.9853L84.779 40.0096L71.9994 32.2351L58.4766 8L110.789 39.9853Z" fill="#ED6F26"/>
<path d="M72.0714 95.7432V80.1708L58.4766 71.9764L58.4842 120.002L72.0714 95.7432Z" fill="#63B22F"/>
<path d="M84.7528 88.0236L33.5618 56.6252L20 32.3828L110.739 87.992L84.7528 88.0236Z" fill="#1487C9"/>
<path d="M58.4922 119.994L72.0774 95.7344L84.7546 88.016L110.741 87.9844L58.4922 119.994Z" fill="#017F36"/>
<path d="M20.0156 95.6044L58.592 71.9728L45.6228 64.0156L33.5625 71.4092L20.0156 95.6044Z" fill="#984995"/>
</svg>
