<svg viewBox="0 0 1114 661" xmlns="http://www.w3.org/2000/svg">
<path d="M1107.4 473.821C1106.21 472.546 1104.98 471.271 1103.75 469.997L973.617 338.99C973.025 338.398 973.025 337.396 973.617 336.805L1103.75 205.797C1107.35 202.201 1110.72 198.423 1114 194.554C1037.07 95.8657 878.738 21.9408 686.975 0L568 118.034C567.408 118.626 566.406 118.626 565.814 118.034L446.976 0.136561C235.946 24.5809 65.5455 111.98 0 226.008L110.047 336.759C110.639 337.351 110.639 338.352 110.047 338.944L5.87576 443.823C76.2039 554.482 246.148 638.285 454.719 660.863L565.859 550.613C566.451 550.022 567.453 550.022 568.046 550.613L679.323 661C869.218 640.698 1027.23 569.641 1107.49 473.775L1107.4 473.821Z" />
</svg>
