<svg viewBox="0 0 48 48" xmlns="http://www.w3.org/2000/svg">
<path fill-rule="evenodd" clip-rule="evenodd" d="M3.19663 21.2892C15.6789 15.7854 24.0023 12.157 28.1669 10.4039C40.0579 5.39851 42.5287 4.52902 44.1392 4.50031C44.4934 4.49399 45.2853 4.58283 45.7983 5.00411C46.2315 5.35984 46.3507 5.84037 46.4077 6.17763C46.4648 6.5149 46.5358 7.2832 46.4793 7.88353C45.835 14.7355 43.0468 31.3636 41.6283 39.038C41.0281 42.2853 39.8462 43.3741 38.7021 43.4807C36.2156 43.7122 34.3275 41.8176 31.9192 40.22C28.1506 37.7199 26.0217 36.1636 22.3637 33.724C18.1362 30.9046 20.8767 29.3551 23.2859 26.8226C23.9164 26.1599 34.872 16.0749 35.0841 15.16C35.1106 15.0456 35.1352 14.6191 34.8848 14.3939C34.6345 14.1687 34.265 14.2457 33.9983 14.307C33.6203 14.3938 27.6001 18.4209 15.9376 26.3882C14.2287 27.5758 12.6809 28.1544 11.2942 28.124C9.76534 28.0906 6.82452 27.2492 4.63832 26.53C1.95686 25.6479 -0.174312 25.1815 0.0112651 23.6833C0.107925 22.903 1.16971 22.105 3.19663 21.2892Z" />
</svg>
